<?xml version="1.0" encoding="UTF-8" standalone="no"?>
<!DOCTYPE svg PUBLIC "-//W3C//DTD SVG 1.1//EN" "http://www.w3.org/Graphics/SVG/1.1/DTD/svg11.dtd">
<svg width="100%" height="100%" viewBox="0 0 512 512" version="1.1" xmlns="http://www.w3.org/2000/svg" xmlns:xlink="http://www.w3.org/1999/xlink" xml:space="preserve" xmlns:serif="http://www.serif.com/" style="fill-rule:evenodd;clip-rule:evenodd;stroke-linejoin:round;stroke-miterlimit:2;">
    <g transform="matrix(1,0,0,1,100.686,-88.7872)">
        <g transform="matrix(0.225484,0,0,0.809359,164.551,105.261)">
            <path d="M405.57,156.879L406.212,459.254L106.43,402.45L106.43,103.31L405.57,156.879Z" style="fill:rgb(243,153,193);stroke:rgb(243,153,193);stroke-width:3.37px;"/>
        </g>
        <g transform="matrix(-0.225484,0,0,0.809359,347.449,105.261)">
            <path d="M405.57,156.879L405.57,459.254L106.43,402.45L106.43,103.31L405.57,156.879Z" style="fill:rgb(243,153,193);fill-opacity:0.6;stroke:rgb(243,153,193);stroke-width:6.73px;"/>
        </g>
        <g transform="matrix(0.642728,0.637053,-0.639971,0.645671,255.689,-120.753)">
            <path d="M294.071,189.4L274.833,275.531L188.549,293.875L207.033,207.44L294.071,189.4Z" style="fill:rgb(243,153,193);fill-opacity:0.27;stroke:rgb(243,153,193);stroke-width:4.41px;stroke-linecap:round;stroke-miterlimit:1.5;"/>
        </g>
    </g>
    <g transform="matrix(1,0,0,1,-88.7872,-88.7872)">
        <g transform="matrix(0.225484,0,0,0.809359,164.551,105.261)">
            <path d="M405.57,156.879L406.212,459.254L106.43,402.45L106.43,103.31L405.57,156.879Z" style="fill:rgb(112,204,214);stroke:rgb(112,204,214);stroke-width:3.37px;"/>
        </g>
        <g transform="matrix(-0.225484,0,0,0.809359,347.449,105.261)">
            <path d="M405.57,156.879L405.57,459.254L106.43,402.45L106.43,103.31L405.57,156.879Z" style="fill:rgb(112,204,214);fill-opacity:0.6;stroke:rgb(112,204,214);stroke-width:6.73px;"/>
        </g>
        <g transform="matrix(0.642728,0.637053,-0.639971,0.645671,255.689,-120.753)">
            <path d="M294.071,189.4L274.833,275.531L188.549,293.875L207.033,207.44L294.071,189.4Z" style="fill:rgb(112,204,214);fill-opacity:0.27;stroke:rgb(112,204,214);stroke-width:4.41px;stroke-linecap:round;stroke-miterlimit:1.5;"/>
        </g>
    </g>
    <g>
        <g transform="matrix(0.225484,0,0,0.809359,164.551,105.261)">
            <path d="M405.57,128.34L406.212,461.969L106.43,402.45L106.43,103.31L405.57,128.34Z" style="fill:rgb(88,118,100);stroke:rgb(88,118,100);stroke-width:3.37px;"/>
        </g>
        <g transform="matrix(-0.225484,0,0,0.809359,347.449,105.261)">
            <path d="M405.57,128.34L405.57,461.969L106.43,402.45L106.43,103.31L405.57,128.34Z" style="fill:rgb(88,158,100);stroke:rgb(88,118,100);stroke-width:6.73px;"/>
        </g>
        <g transform="matrix(0.642728,0.637053,-0.639971,0.645671,255.689,-120.753)">
            <path d="M294.071,189.4L275.83,276.533L188.549,293.875L208.03,208.441L294.071,189.4Z" style="fill:rgb(88,200,100);stroke:rgb(88,118,100);stroke-width:4.41px;stroke-linecap:round;stroke-miterlimit:1.5;"/>
        </g>
        <g transform="matrix(1.23327,0,0,1.23327,51.9578,-25.896)">
            <g transform="matrix(313.226,0,0,313.226,211.179,380.192)">
            </g>
            <text x="120.97px" y="380.192px" style="font-family:'AdobeHebrew-Bold', 'Adobe Hebrew', serif;font-weight:600;font-size:313.226px;fill:white;">!</text>
        </g>
    </g>
</svg>
