<?xml version="1.0" encoding="UTF-8"?>
<svg id="Layer_1" xmlns="http://www.w3.org/2000/svg" version="1.1" viewBox="0 0 512 512">
  <!-- Generator: Adobe Illustrator 29.5.1, SVG Export Plug-In . SVG Version: 2.1.0 Build 141)  -->
  <defs>
    <style>
      .st0 {
        stroke: #000;
      }

      .st0, .st1, .st2, .st3, .st4 {
        fill: none;
      }

      .st0, .st2, .st3, .st4 {
        stroke-miterlimit: 10;
      }

      .st5 {
        display: none;
        fill: #687a7b;
      }

      .st2 {
        stroke-dasharray: 54.02 54.02;
      }

      .st2, .st4 {
        stroke: #a9bfb2;
        stroke-width: 24px;
      }

      .st3 {
        stroke: #ee4f9c;
        stroke-width: 30px;
      }
    </style>
  </defs>
  <rect class="st5" y="0" width="512" height="512"/>
  <line class="st0" x1="61.44" y1="256" x2="61.44" y2="256"/>
  <g>
    <line class="st1" x1="256" y1="470.07" x2="256" y2="41.93"/>
    <g>
      <line class="st4" x1="256" y1="470.07" x2="256" y2="445.07"/>
      <line class="st2" x1="256" y1="391.04" x2="256" y2="93.94"/>
      <line class="st4" x1="256" y1="66.93" x2="256" y2="41.93"/>
    </g>
  </g>
  <g>
    <line class="st1" x1="41.93" y1="256" x2="470.07" y2="256"/>
    <g>
      <line class="st4" x1="41.93" y1="256" x2="66.93" y2="256"/>
      <line class="st2" x1="120.96" y1="256" x2="418.06" y2="256"/>
      <line class="st4" x1="445.07" y1="256" x2="470.07" y2="256"/>
    </g>
  </g>
  <line class="st3" x1="66.93" y1="93.94" x2="66.93" y2="204.94"/>
  <line class="st3" x1="389.5" y1="391.04" x2="278.5" y2="391.04"/>
  <line class="st3" x1="329.06" y1="111.89" x2="418.06" y2="111.89"/>
  <line class="st3" x1="86.43" y1="313.39" x2="86.44" y2="402.39"/>
  <line class="st3" x1="412" y1="181.32" x2="412" y2="373.46"/>
  <line class="st3" x1="158" y1="277.39" x2="158" y2="469.54"/>
</svg>